HIERARCHY
ROOT Hips
{
	OFFSET -3.958830 18.904000 13.208200
	CHANNELS 6 Xposition Yposition Zposition Zrotation Yrotation Xrotation 
	JOINT LHipJoint
	{
		OFFSET 0.000000 0.000000 0.000000
		CHANNELS 3 Zrotation Yrotation Xrotation
		JOINT LeftUpLeg
		{
			OFFSET 1.800000 -1.400000 0.085000
			CHANNELS 3 Zrotation Yrotation Xrotation
			JOINT LeftLeg
			{
				OFFSET 2.215000 -6.000000 0.000000
				CHANNELS 3 Zrotation Yrotation Xrotation
				JOINT LeftFoot
				{
					OFFSET 2.500000 -6.900000 0.000000
					CHANNELS 3 Zrotation Yrotation Xrotation
					JOINT LeftToeBase
					{
						OFFSET 0.200000 -0.500000 1.950000
						CHANNELS 3 Zrotation Yrotation Xrotation
						End Site
						{
							OFFSET 0.000000 0.000000 0.000000
						}
					}
				}
			}
		}
	}
	JOINT RHipJoint
	{
		OFFSET 0.000000 0.000000 0.000000
		CHANNELS 3 Zrotation Yrotation Xrotation
		JOINT RightUpLeg
		{
			OFFSET -1.800000 -1.400000 0.085000
			CHANNELS 3 Zrotation Yrotation Xrotation
			JOINT RightLeg
			{
				OFFSET -2.215000 -6.000000 0.000000
				CHANNELS 3 Zrotation Yrotation Xrotation
				JOINT RightFoot
				{
					OFFSET -2.500000 -6.900000 0.000000
					CHANNELS 3 Zrotation Yrotation Xrotation
					JOINT RightToeBase
					{
						OFFSET -0.200000 -0.500000 1.950000
						CHANNELS 3 Zrotation Yrotation Xrotation
						End Site
						{
							OFFSET 0.000000 0.000000 0.000000
						}
					}
				}
			}
		}
	}
	JOINT LowerBack
	{
		OFFSET 0.000000 0.000000 0.000000
		CHANNELS 3 Zrotation Yrotation Xrotation
		JOINT Spine
		{
			OFFSET -0.087000 1.940000 -0.288900
			CHANNELS 3 Zrotation Yrotation Xrotation
			JOINT Spine1
			{
				OFFSET 0.000000 1.950000 0.060000
				CHANNELS 3 Zrotation Yrotation Xrotation
				JOINT Neck
				{
					OFFSET 0.000000 0.000000 0.000000
					CHANNELS 3 Zrotation Yrotation Xrotation
					JOINT Neck1
					{
						OFFSET 0.000000 1.600000 0.340000
						CHANNELS 3 Zrotation Yrotation Xrotation
						JOINT Head
						{
							OFFSET 0.000000 1.667000 -0.240000
							CHANNELS 3 Zrotation Yrotation Xrotation
							End Site
							{
								OFFSET 0.000000 0.000000 0.000000
							}
						}
					}
				}
				JOINT LeftShoulder
				{
					OFFSET 0.000000 0.000000 0.000000
					CHANNELS 3 Zrotation Yrotation Xrotation
					JOINT LeftArm
					{
						OFFSET 2.700000 1.550000 -0.730000
						CHANNELS 3 Zrotation Yrotation Xrotation
						JOINT LeftForeArm
						{
							OFFSET 5.450000 0.000000 0.000000
							CHANNELS 3 Zrotation Yrotation Xrotation
							JOINT LeftHand
							{
								OFFSET 3.450000 0.000000 0.000000
								CHANNELS 3 Zrotation Yrotation Xrotation
								JOINT LeftHandIndex1
								{
									OFFSET 0.750000 0.000000 0.000000
									CHANNELS 3 Zrotation Yrotation Xrotation
									End Site
									{
										OFFSET 0.000000 0.000000 0.000000
									}
								}
							}
						}
					}
				}
				JOINT RightShoulder
				{
					OFFSET 0.000000 0.000000 0.000000
					CHANNELS 3 Zrotation Yrotation Xrotation
					JOINT RightArm
					{
						OFFSET -2.700000 1.550000 -0.730000
						CHANNELS 3 Zrotation Yrotation Xrotation
						JOINT RightForeArm
						{
							OFFSET -5.450000 0.000000 0.000000
							CHANNELS 3 Zrotation Yrotation Xrotation
							JOINT RightHand
							{
								OFFSET -3.450000 0.000000 0.000000
								CHANNELS 3 Zrotation Yrotation Xrotation
								JOINT RightHandIndex1
								{
									OFFSET -0.750000 0.000000 0.000000
									CHANNELS 3 Zrotation Yrotation Xrotation
									End Site
									{
										OFFSET 0.000000 0.000000 0.000000
									}
								}
							}
						}
					}
				}
			}
		}
	}
}
MOTION
Frames: 9
Frame Time: 0.016667
0.465100 16.978800 -1.781290 0.750336 15.588326 7.718236 -15.282942 12.242054 3.802806 -1.804435 -9.487577 -24.711866 1.218750 7.345319 51.248659 0.370183 9.103498 1.762090 -0.380780 -0.774450 -0.525990 18.372636 -10.308033 2.984113 0.910849 4.044163 -33.926586 1.079953 -4.882885 25.922591 0.358881 -3.375614 3.464270 -0.278050 1.016850 0.036500 -3.774198 -0.995982 -7.553040 6.315582 -1.759658 8.036117 -3.668998 -1.087281 -5.150017 1.081480 -1.931902 -3.126279 -3.440168 -6.493006 23.769492 -2.377490 -8.961400 7.515170 -21.579648 9.987951 -2.969181 -65.624330 -7.101940 -2.612917 -14.699268 -39.094600 3.138360 -4.271202 2.826355 0.137480 0.572530 -0.748330 0.203950 18.819628 -7.898918 -0.878641 59.230405 -2.949857 -5.980752 -2.149487 1.179281 -0.310229 2.320889 -1.156258 -0.545630 0.440920 0.506280 -0.034750 
0.475990 16.884200 -1.839900 0.500080 16.901316 7.039183 -15.249306 12.535651 3.483032 -1.563827 -8.050143 -22.448360 2.285981 6.397984 47.104671 0.163549 8.134477 2.026154 -0.325490 -0.719770 -0.455710 18.357216 -10.157280 3.481852 -0.128474 5.037314 -39.317802 1.372785 -6.531520 34.747969 0.078011 -4.505538 3.006981 -0.290170 0.874570 -0.011920 -3.843958 -1.401431 -7.849658 7.239605 -2.768574 11.156198 -5.013075 -1.657952 -6.393964 1.457037 -3.343511 -4.084700 -6.299134 -5.999655 25.798403 -0.119220 -10.013050 3.687860 -21.137463 9.802928 -2.532975 -66.358074 -7.303858 -2.229428 -17.891036 -46.447234 5.515882 -4.058161 2.857689 0.281880 0.415580 -0.630320 0.178990 17.435572 -6.841420 0.164494 59.694028 -4.115940 -6.957489 -2.207017 3.220561 -0.307471 2.329573 -1.040676 -0.530050 0.454740 0.472770 -0.067210 
0.478350 16.790610 -1.911400 0.116623 17.908257 5.924216 -15.233347 12.702619 3.109317 -0.819239 -6.829060 -20.104900 2.542355 6.043114 43.421908 0.030625 7.364502 2.236470 -0.225660 -0.611470 -0.371260 18.382669 -9.766776 4.111618 -2.714376 5.983175 -45.591601 3.234161 -9.544773 44.540573 -0.352220 -6.328179 2.326399 -0.276120 0.732540 -0.035010 -3.906941 -1.948858 -8.181776 8.205762 -4.238736 14.584412 -6.749839 -2.690952 -6.660723 2.079782 -4.920301 -5.181112 -9.608424 -5.090169 27.711525 2.766080 -10.888130 -0.937390 -20.891665 8.564580 -1.936638 -66.378756 -8.027612 -2.420414 -18.635249 -54.405284 7.002460 -3.846051 2.943072 0.397470 0.265800 -0.510660 0.171920 15.918171 -4.842719 1.453529 60.157423 -4.912010 -8.274370 -0.809085 7.219777 -0.509045 2.307892 -0.974675 -0.480510 0.446240 0.414750 -0.084600 
0.460990 16.701190 -1.995870 0.183219 18.790198 3.883356 -15.276157 12.807301 2.790403 0.127253 -6.042742 -17.273744 1.999592 6.320648 41.478693 -0.010715 7.041505 2.303581 -0.129180 -0.489640 -0.289660 18.377175 -9.265825 4.726875 -6.630713 6.141444 -51.175522 6.022947 -13.652798 53.534597 -0.879696 -8.395086 1.615606 -0.251150 0.594000 -0.056730 -3.810283 -2.624618 -8.557167 7.290741 -5.700816 19.182132 -7.755602 -3.879753 -6.076138 2.799585 -5.974054 -6.731067 -12.560110 -3.961056 30.502258 5.609220 -11.041990 -6.217050 -21.081752 5.313098 -0.748389 -64.713643 -8.490690 -3.566977 -20.403504 -64.240049 8.975257 -3.650844 3.028361 0.523970 0.121720 -0.376160 0.165820 14.995633 -1.168805 3.244689 60.088872 -5.798264 -10.172689 1.660036 13.344264 -0.567691 2.239775 -0.917797 -0.439840 0.453820 0.358500 -0.103090 
0.435580 16.620880 -2.093280 -0.774314 20.068945 0.295835 -15.313988 12.903228 2.493674 2.449532 -5.724579 -14.250126 1.007559 6.993202 41.219506 -0.004964 7.132992 2.211368 0.000360 -0.335990 -0.178360 18.378155 -8.798838 5.210118 -9.991997 5.716378 -54.941484 9.157105 -18.374685 60.883856 -1.450194 -10.312423 0.995426 -0.200310 0.436880 -0.059090 -3.738578 -3.282617 -8.853221 6.853841 -7.377017 24.753436 -8.642904 -5.106065 -3.997353 3.678609 -6.688485 -8.659616 -15.459143 -2.715569 33.951874 8.275540 -10.633200 -12.281690 -21.911789 -0.252833 0.724224 -61.716329 -9.858153 -5.485795 -18.488426 -73.860805 7.857926 -3.470639 3.075470 0.662630 -0.027300 -0.224940 0.156570 14.430595 4.417326 5.740519 59.203044 -6.885247 -12.674539 5.447147 20.968421 -0.185894 2.133621 -0.920002 -0.391990 0.451950 0.296870 -0.133040 
0.402280 16.559530 -2.203340 -2.132875 21.093514 -3.817453 -15.345747 12.898952 2.299527 4.953394 -6.038222 -11.800199 -0.176236 7.917996 42.625102 0.039390 7.589600 2.011523 0.089920 -0.208760 -0.090480 18.391849 -8.412854 5.521777 -12.399172 5.032740 -57.452356 11.203252 -22.611304 67.066235 -1.949184 -11.884695 0.543328 -0.140650 0.337170 -0.082390 -3.683442 -3.742057 -9.047626 6.063277 -8.920395 30.617532 -9.422701 -6.286619 -0.770998 4.314737 -6.617274 -10.511995 -16.762229 -1.703416 36.511547 10.530740 -9.452300 -18.011770 -23.421621 -7.066268 2.333354 -56.498957 -11.245581 -8.037571 -11.863630 -83.553502 1.768605 -3.345438 3.007341 0.775560 -0.129700 -0.111890 0.138200 14.918191 10.386936 8.365417 56.754696 -8.694059 -15.840040 10.919797 30.906379 0.968302 1.982773 -0.953071 -0.384080 0.503160 0.265160 -0.163780 
0.363400 16.512660 -2.294430 -3.664237 21.872717 -7.840039 -15.343692 12.808638 2.232488 7.577471 -6.922933 -10.244741 -1.567387 9.032834 45.144374 0.156926 8.253683 1.752860 0.189870 -0.078540 0.000730 18.420691 -8.206352 5.638949 -13.516316 4.376741 -58.522438 11.976346 -25.785020 71.936297 -2.359268 -13.022590 0.238160 -0.088480 0.258120 -0.058110 -3.710924 -3.869483 -9.171757 5.342813 -10.417269 36.191722 -10.213041 -7.531591 1.602320 4.562295 -6.001530 -11.816237 -16.609951 -0.953323 38.817438 11.909950 -7.774000 -22.407240 -24.818389 -13.164533 3.303353 -50.116147 -11.417553 -13.843624 -113.904309 -88.819608 107.144512 -3.369271 0.474922 0.860540 -0.199420 0.005240 0.144870 15.805010 15.394835 10.744081 54.014027 -10.709590 -18.363078 16.195655 38.934094 2.489902 1.880043 -1.032928 -0.349680 0.520410 0.214040 -0.177440 
0.329430 16.466200 -2.360470 -5.392355 22.073868 -10.977740 -15.316479 12.637856 2.215284 10.027351 -7.977796 -9.708710 -2.651057 10.146765 48.076257 0.286685 8.953471 1.488801 0.228410 -0.022080 0.046610 18.472318 -8.070556 5.715701 -13.747452 4.311999 -59.548985 11.922282 -28.276493 76.452097 -2.666720 -13.980384 0.015078 -0.065070 0.211910 -0.055120 -3.800141 -3.756574 -9.286121 5.159931 -11.814430 40.413200 -11.426163 -8.490049 4.291188 4.904185 -4.987879 -13.689748 -15.200411 -0.591491 39.508326 12.105920 -5.915710 -23.808700 -26.643672 -18.195497 5.855540 -42.364480 -11.586216 -9.150702 129.196908 -74.984297 -136.041779 -3.476928 2.905360 0.886140 -0.219750 0.046880 0.133620 16.804354 19.195586 12.252601 50.892806 -13.177165 -20.373332 22.850726 46.321157 4.969584 1.790554 -1.140938 -0.335280 0.512610 0.193900 -0.198960 
0.307360 16.432860 -2.400180 -6.974392 21.360104 -13.639413 -15.242885 12.468821 2.202337 12.280134 -8.531940 -8.844839 -3.739184 11.280627 50.056633 0.399091 9.541291 1.285433 0.221500 -0.018080 0.058220 18.545579 -8.143993 5.655342 -13.084597 4.817851 -58.902647 11.717594 -29.704977 79.231834 -2.856931 -14.546437 -0.114564 -0.064490 0.210180 -0.053680 -4.005965 -3.338370 -9.301463 5.873072 -13.223714 43.803188 -13.098299 -9.230253 5.158234 4.993178 -4.714241 -14.346788 -14.741475 -0.136251 39.499759 12.231620 -4.692870 -24.808640 -27.133295 -20.452174 6.319632 -36.810616 -10.661178 -10.733711 135.336648 -70.522129 -140.695624 -3.419547 2.990448 0.898090 -0.224280 0.063230 0.115790 16.910044 20.656190 13.211263 47.665211 -15.226058 -20.772234 32.639397 51.114410 8.980917 1.779487 -1.218049 -0.339070 0.528080 0.205500 -0.204270 
